<svg xmlns="http://www.w3.org/2000/svg" width="102" height="97" viewBox="0 0 102 97" fill="none">
  <path d="M56.9247 31.8928H98.9203C100.975 31.8928 102.267 34.1187 101.24 35.9087L95.994 44.9989C95.387 46.0418 94.1728 46.571 92.9899 46.2753L56.2709 37.1695C53.2045 36.4068 53.7493 31.8928 56.9091 31.8928H56.9247Z" fill="#2A9D90"/>
  <path d="M60.1862 42.5373L90.4143 50.0243C92.2822 50.4913 93.1849 52.5926 92.2199 54.2581L88.453 60.78C87.6748 62.1342 85.947 62.6323 84.5617 61.9007L58.1004 47.8918C55.0807 46.2886 56.8552 41.7279 60.1862 42.5373Z" fill="#2A9D90"/>
  <path d="M60.1386 53.7796L83.1288 65.9518C84.5764 66.7145 85.0901 68.5201 84.2807 69.9365L81.619 74.5439C81.4166 74.8864 81.2143 75.2444 80.9964 75.5712C80.0469 77.1122 77.9144 77.408 76.5602 76.2094L56.8232 58.4804C54.286 56.2078 57.1189 52.1919 60.1386 53.7796Z" fill="#2A9D90"/>
  <path d="M56.5553 63.9779L74.1754 79.7924C75.4051 80.8976 75.4362 82.8121 74.2688 83.9951C72.8212 85.4582 71.2958 86.8124 69.677 88.0577C68.3384 89.085 66.4082 88.7892 65.4588 87.4039L52.1814 67.7448C50.2824 64.9274 54.0026 61.7054 56.5398 63.9779H56.5553Z" fill="#2A9D90"/>
  <path d="M50.6919 73.065L61.5566 89.2064C62.5684 90.7162 61.9302 92.7709 60.2491 93.5024C58.677 94.1718 57.0738 94.7633 55.455 95.2458C54.0541 95.6661 52.4664 94.8099 51.9683 93.4402L45.5398 75.6644C44.3879 72.4579 48.7774 70.2477 50.6764 73.065H50.6919Z" fill="#2A9D90"/>
  <path d="M38.5305 94.111L37.2542 81.7676C36.9117 78.3744 41.7059 77.2848 42.8733 80.4757L47.3717 92.8658C48.041 94.7181 46.7024 96.7105 44.7256 96.7572C43.5426 96.7883 42.3441 96.7572 41.1611 96.6949C39.838 96.6171 38.6706 95.4185 38.5305 94.1266V94.111Z" fill="#2A9D90"/>
  <path d="M26.5137 90.1668L27.401 83.9873C27.8835 80.6096 32.8178 80.703 33.1602 84.0807L33.8606 90.8828C34.0786 93.0464 31.9305 94.6341 29.8915 93.8714C29.3155 93.6535 28.7396 93.42 28.1637 93.1865C27.0741 92.7195 26.327 91.3342 26.4982 90.1512L26.5137 90.1668Z" fill="#2A9D90"/>
  <path d="M17.5136 83.4269C18.8056 80.2671 23.553 81.5435 23.0705 84.9056C22.7748 86.9291 20.5333 88.0187 18.7589 87.0069C17.4981 86.2909 16.9688 84.7655 17.5136 83.4269Z" fill="#2A9D90"/>
  <path d="M45.0752 65.1118H3.07958C1.02494 65.1118 -0.266991 62.886 0.76033 61.096L6.00588 52.0057C6.61293 50.9628 7.82704 50.4336 9.01002 50.7294L45.7289 59.8351C48.7953 60.5979 48.2505 65.1118 45.0908 65.1118H45.0752Z" fill="#2A9D90"/>
  <path d="M41.7992 54.4521L11.5711 46.9652C9.7032 46.4982 8.80041 44.3969 9.76546 42.7314L13.5323 36.2094C14.3106 34.8552 16.0383 34.3571 17.4237 35.0887L43.885 49.0976C46.9047 50.7009 45.1302 55.2615 41.7992 54.4521Z" fill="#2A9D90"/>
  <path d="M41.8551 43.2L18.8649 31.0278C17.4173 30.2651 16.9036 28.4595 17.7131 27.043L20.3747 22.4357C20.5771 22.0932 20.7794 21.7352 20.9974 21.4083C21.9469 19.8674 24.0793 19.5716 25.4335 20.7702L45.1705 38.4992C47.7077 40.7718 44.8748 44.7877 41.8551 43.2Z" fill="#2A9D90"/>
  <path d="M45.4242 33.0049L27.8041 17.1904C26.5744 16.0853 26.5433 14.1707 27.7107 12.9878C29.1583 11.5246 30.6837 10.1704 32.3025 8.92518C33.6412 7.89786 35.5713 8.1936 36.5208 9.57893L49.7981 29.2381C51.6971 32.0555 47.9769 35.2775 45.4398 33.0049H45.4242Z" fill="#2A9D90"/>
  <path d="M51.3129 23.9374L40.4482 7.79603C39.4365 6.28618 40.0747 4.23155 41.7557 3.49997C43.3278 2.83066 44.9311 2.23917 46.5499 1.75664C47.9508 1.33637 49.5385 2.19248 50.0365 3.56224L56.4651 21.338C57.6169 24.5445 53.2275 26.7548 51.3285 23.9374H51.3129Z" fill="#2A9D90"/>
  <path d="M63.467 2.88906L64.7434 15.2325C65.0858 18.6257 60.2916 19.7153 59.1242 16.5244L54.6258 4.13429C53.9565 2.282 55.2951 0.289622 57.2719 0.242925C58.4549 0.211795 59.6534 0.242927 60.8364 0.305189C62.1595 0.383016 63.3269 1.58156 63.467 2.87349V2.88906Z" fill="#2A9D90"/>
  <path d="M75.4838 6.80751L74.5966 12.987C74.114 16.3647 69.1798 16.2713 68.8373 12.8936L68.1369 6.0915C67.919 3.9279 70.067 2.34023 72.1061 3.10294C72.682 3.32085 73.2579 3.55433 73.8339 3.78781C74.9234 4.25477 75.6706 5.64011 75.4994 6.82308L75.4838 6.80751Z" fill="#2A9D90"/>
  <path d="M84.4923 13.5527C83.2003 16.7125 78.4529 15.4361 78.9354 12.074C79.2312 10.0505 81.4726 8.96089 83.247 9.97265C84.5078 10.6887 85.0371 12.2141 84.4923 13.5527Z" fill="#2A9D90"/>
</svg>